
<svg enable-background="0 0 4000 4000" version="1.1" viewBox="0 0 4e3 4e3" xml:space="preserve" xmlns="http://www.w3.org/2000/svg">
<path d="m2344 4002h-2342v-4e3h4e3v4e3h-1658m1289.7-567v-182.67h-399.43v-2480.3h438.8v-407.1c-7.3955-0.91306-14.269-2.5024-21.143-2.5044-413.31-0.11822-826.62-0.1069-1239.9-0.084014-2.5652 1.52e-4 -5.1301 0.33173-7.7061 0.50928v409.48h95.459 93.994c31.665 0 63.329-0.021545 94.994 0.006103 31.501 0.027405 63.007-0.12714 94.949 0.10724v12.321c0 132.99-0.077148 265.98 0.1792 398.97 0.016358 8.5791-2.5049 14.969-7.8096 21.515-182.91 225.71-365.67 451.55-548.46 677.36-164.8 203.57-329.61 407.14-494.42 610.7-97.502 120.43-195.02 240.85-292.5 361.29-1.9692 2.4331-3.646 5.1025-6.6078 9.2825h1349.1v388.62h-428.87v409.09h1279.4v-226.6m-1635.2-1773.6c126.02-162.46 252.04-324.91 379.42-489.12h-1243.6v-400.4h438.86v-409.02h-1268.9v409.73c126.25 0 251.87-3.67e-4 377.49 0.023681 0.2583 6.1e-5 0.52893 0.34601 0.7713 0.5564 0.2511 0.2179 0.47479 0.46747 0.58276 0.57544v2478.8h-428.81v409.39c45.348 2.397 1270.8 1.1836 1278.8-1.1702v-408.61h-399.43c0-2.6182 0.013794-4.2358-0.001954-5.853-1.2427-127.21 2.3894-254.43-1.8727-381.63-0.87024-25.971 0.001709-51.997-0.22644-77.995-0.049682-5.6624 1.5584-10.036 5.0547-14.505 31.78-40.626 63.347-81.418 94.964-122.17 114.74-147.9 229.48-295.81 344.21-443.72 30.187-38.915 60.355-77.844 90.544-116.76 75.896-97.829 151.8-195.65 227.7-293.48 34.517-44.489 69.03-88.981 104.41-134.6z" fill="#fff"/>
<path d="m3633.7 3436v225.6h-1279.4v-409.09h428.87v-388.62h-1349.1c2.9618-4.1799 4.6386-6.8494 6.6078-9.2825 97.485-120.44 195-240.86 292.5-361.29 164.81-203.56 329.62-407.12 494.42-610.7 182.79-225.81 365.55-451.65 548.46-677.36 5.3047-6.5454 7.8259-12.936 7.8096-21.515-0.25635-132.99-0.1792-265.98-0.1792-398.97v-12.321c-31.942-0.23438-63.447-0.079834-94.949-0.10724-31.665-0.027648-63.329-0.006103-94.994-0.006103h-93.994-95.459v-409.48c2.5759-0.17755 5.1409-0.50912 7.7061-0.50928 413.31-0.022889 826.62-0.034211 1239.9 0.084014 6.874 0.001984 13.747 1.5913 21.143 2.5044v407.1h-438.8v2480.3h399.43v183.67z"/>
<path d="m1998 1662c-34.947 45.054-69.46 89.546-103.98 134.03-75.899 97.826-151.8 195.65-227.7 293.48-30.189 38.913-60.358 77.843-90.544 116.76-114.74 147.91-229.47 295.81-344.21 443.72-31.616 40.754-63.183 81.546-94.964 122.17-3.4963 4.4692-5.1044 8.8425-5.0547 14.505 0.22815 25.998-0.6438 52.024 0.22644 77.995 4.2621 127.2 0.63 254.42 1.8727 381.63 0.015748 1.6172 0.001954 3.2349 0.001954 5.853h399.43v408.61c-7.9858 2.3538-1233.4 3.5671-1278.8 1.1702v-409.39h428.81v-2478.8c-0.10797-0.10797-0.33166-0.35754-0.58276-0.57544-0.24237-0.21039-0.513-0.55634-0.7713-0.5564-125.62-0.024048-251.24-0.023681-377.49-0.023681v-409.73h1268.9v409.02h-438.86v400.4h1243.6c-127.38 164.21-253.4 326.66-379.86 489.68z"/>
</svg>