
<svg width="465" height="336" viewBox="0 0 465 336" fill="none" xmlns="http://www.w3.org/2000/svg">
<g clip-path="url(#clip0_4_24)">
<path d="M460.799 175.176C459.284 172.505 457.251 170.164 454.82 168.289C452.388 166.414 449.607 165.043 446.639 164.256C429.471 159.896 411.641 158.763 394.059 160.916C405.019 117.996 398.819 84.1959 392.559 64.9159C390.721 59.1525 386.802 54.2809 381.565 51.2522C376.329 48.2235 370.151 47.255 364.239 48.5359C341.832 53.5833 320.718 63.2342 302.239 76.8759C290.038 48.5367 270.838 23.7617 246.439 4.8759C242.29 1.71302 237.217 0 231.999 0C226.782 0 221.709 1.71302 217.559 4.8759C193.161 23.7617 173.96 48.5367 161.759 76.8759C143.278 63.2377 122.165 53.5872 99.7592 48.5359C93.8471 47.255 87.6698 48.2235 82.4333 51.2522C77.1968 54.2809 73.2771 59.1525 71.4392 64.9159C65.1792 84.2759 58.9792 118.076 69.9392 160.916C52.3767 158.771 34.5685 159.903 17.4192 164.256C14.4513 165.043 11.6701 166.414 9.23872 168.289C6.80729 170.164 4.77445 172.505 3.25924 175.176C1.65264 177.935 0.612837 180.988 0.200728 184.154C-0.21138 187.32 0.0124954 190.537 0.859241 193.616C7.33924 217.616 27.2592 263.236 87.8992 299.456C148.539 335.676 202.959 335.876 232.059 335.876C261.159 335.876 315.279 335.876 376.199 299.456C437.119 263.036 456.759 217.596 463.239 193.616C464.08 190.535 464.297 187.316 463.878 184.15C463.459 180.983 462.413 177.933 460.799 175.176ZM367.659 64.0959C369.711 63.6709 371.848 64.0281 373.65 65.0975C375.452 66.1669 376.789 67.8712 377.399 69.8759C385.399 94.8759 393.399 146.576 355.859 211.876C334.959 248.256 305.639 276.276 279.639 294.756C300.059 267.876 320.059 226.356 320.059 166.256C320.271 141.108 316.297 116.1 308.299 92.2559C325.772 78.6138 346.041 68.9983 367.659 64.0959ZM86.7192 69.8759C87.3452 67.8871 88.6901 66.2032 90.4911 65.1528C92.2922 64.1025 94.4201 63.7614 96.4592 64.1959C118.069 69.0684 138.338 78.6495 155.819 92.2559C147.822 116.1 143.847 141.108 144.059 166.256C144.059 226.356 164.059 267.896 184.479 294.716C158.479 276.236 129.159 248.216 108.259 211.836C70.6992 146.476 78.6392 94.7759 86.7192 69.8759ZM96.1592 285.876C40.3592 252.536 22.1592 211.236 16.3592 189.576C16.0641 188.531 15.9846 187.438 16.1256 186.362C16.2666 185.285 16.6251 184.249 17.1792 183.316C17.6459 182.472 18.2777 181.731 19.0371 181.136C19.7965 180.542 20.6679 180.106 21.5992 179.856C39.0847 175.468 57.2948 174.787 75.0592 177.856C80.1718 192.429 86.6401 206.491 94.3792 219.856C120.939 266.056 159.699 299.196 190.919 318.076C157.36 314.3 125.025 303.265 96.1592 285.736V285.876ZM232.159 318.556C219.124 309.481 207.596 298.412 197.999 285.756C172.799 253.036 160.059 212.876 160.059 166.256C160.059 77.7559 207.039 32.7559 227.239 17.5359C228.628 16.4878 230.32 15.9209 232.059 15.9209C233.799 15.9209 235.491 16.4878 236.879 17.5359C257.079 32.7559 304.059 77.7559 304.059 166.256C304.059 212.876 291.319 253.036 266.219 285.616C256.622 298.272 245.095 309.341 232.059 318.416L232.159 318.556ZM447.859 189.576C442.019 211.236 423.859 252.536 368.059 285.876C339.19 303.391 306.855 314.413 273.299 318.176C304.519 299.296 343.299 266.176 369.839 219.956C377.578 206.591 384.047 192.529 389.159 177.956C406.923 174.877 425.135 175.558 442.619 179.956C443.551 180.206 444.422 180.642 445.181 181.236C445.941 181.831 446.573 182.572 447.039 183.416C448.06 185.25 448.318 187.412 447.759 189.436L447.859 189.576Z" fill="black"/>
<path d="M367.659 64.0959C369.711 63.6709 371.848 64.0281 373.65 65.0975C375.452 66.1669 376.789 67.8712 377.399 69.8759C385.399 94.8759 393.399 146.576 355.859 211.876C334.959 248.256 305.639 276.276 279.639 294.756C300.059 267.876 320.059 226.356 320.059 166.256C320.271 141.108 316.297 116.1 308.299 92.2559C325.772 78.6138 346.041 68.9983 367.659 64.0959Z" fill="#FF7600"/>
<path d="M96.1592 285.876C40.3592 252.536 22.1592 211.236 16.3592 189.576C16.0641 188.531 15.9846 187.438 16.1256 186.362C16.2666 185.285 16.6251 184.249 17.1792 183.316C17.6459 182.472 18.2777 181.731 19.0371 181.136C19.7965 180.542 20.6679 180.106 21.5992 179.856C39.0847 175.468 57.2948 174.787 75.0592 177.856C80.1718 192.429 86.6401 206.491 94.3792 219.856C120.939 266.056 159.699 299.196 190.919 318.076C157.36 314.3 125.025 303.265 96.1592 285.736V285.876Z" fill="#04ADE2"/>
<path d="M232.159 318.556C219.124 309.481 207.596 298.412 197.999 285.756C172.799 253.036 160.059 212.876 160.059 166.256C160.059 77.7559 207.039 32.7559 227.239 17.5359C228.628 16.4878 230.32 15.9209 232.059 15.9209C233.799 15.9209 235.491 16.4878 236.879 17.5359C257.079 32.7559 304.059 77.7559 304.059 166.256C304.059 212.876 291.319 253.036 266.219 285.616C256.622 298.272 245.095 309.341 232.059 318.416L232.159 318.556Z" fill="#9ABDDC"/>
<path d="M86.7192 69.8759C87.3452 67.8871 88.6901 66.2032 90.4911 65.1528C92.2922 64.1025 94.4201 63.7614 96.4592 64.1959C118.069 69.0684 138.338 78.6495 155.819 92.2559C147.822 116.1 143.847 141.108 144.059 166.256C144.059 226.356 164.059 267.896 184.479 294.716C158.479 276.236 129.159 248.216 108.259 211.836C70.6992 146.476 78.6392 94.7759 86.7192 69.8759Z" fill="#613318"/>
<path d="M447.859 189.576C442.019 211.236 423.859 252.536 368.059 285.876C339.19 303.391 306.855 314.413 273.299 318.176C304.519 299.296 343.299 266.176 369.839 219.956C377.578 206.591 384.047 192.529 389.159 177.956C406.923 174.877 425.135 175.558 442.619 179.956C443.551 180.206 444.422 180.642 445.181 181.236C445.941 181.831 446.573 182.572 447.039 183.416C448.06 185.25 448.318 187.412 447.759 189.436L447.859 189.576Z" fill="#1D1135"/>
<path d="M460.799 175.176C459.284 172.505 457.251 170.164 454.82 168.289C452.388 166.414 449.607 165.043 446.639 164.256C429.471 159.896 411.641 158.763 394.059 160.916C405.019 117.996 398.819 84.1959 392.559 64.9159C390.721 59.1525 386.802 54.2809 381.565 51.2522C376.329 48.2235 370.151 47.255 364.239 48.5359C341.832 53.5833 320.718 63.2342 302.239 76.8759C290.038 48.5367 270.838 23.7617 246.439 4.8759C242.29 1.71302 237.217 0 231.999 0C226.782 0 221.709 1.71302 217.559 4.8759C193.161 23.7617 173.96 48.5367 161.759 76.8759C143.278 63.2377 122.165 53.5872 99.7592 48.5359C93.8471 47.255 87.6698 48.2235 82.4333 51.2522C77.1968 54.2809 73.2771 59.1525 71.4392 64.9159C65.1792 84.2759 58.9792 118.076 69.9392 160.916C52.3767 158.771 34.5685 159.903 17.4192 164.256C14.4513 165.043 11.6701 166.414 9.23872 168.289C6.80729 170.164 4.77445 172.505 3.25924 175.176C1.65264 177.935 0.612837 180.988 0.200728 184.154C-0.21138 187.32 0.0124954 190.537 0.859241 193.616C7.33924 217.616 27.2592 263.236 87.8992 299.456C148.539 335.676 202.959 335.876 232.059 335.876C261.159 335.876 315.279 335.876 376.199 299.456C437.119 263.036 456.759 217.596 463.239 193.616C464.08 190.535 464.297 187.316 463.878 184.15C463.459 180.983 462.413 177.933 460.799 175.176ZM367.659 64.0959C369.711 63.6709 371.848 64.0281 373.65 65.0975C375.452 66.1669 376.789 67.8712 377.399 69.8759C385.399 94.8759 393.399 146.576 355.859 211.876C334.959 248.256 305.639 276.276 279.639 294.756C300.059 267.876 320.059 226.356 320.059 166.256C320.271 141.108 316.297 116.1 308.299 92.2559C325.772 78.6138 346.041 68.9983 367.659 64.0959ZM86.7192 69.8759C87.3452 67.8871 88.6901 66.2032 90.4911 65.1528C92.2922 64.1025 94.4201 63.7614 96.4592 64.1959C118.069 69.0684 138.338 78.6495 155.819 92.2559C147.822 116.1 143.847 141.108 144.059 166.256C144.059 226.356 164.059 267.896 184.479 294.716C158.479 276.236 129.159 248.216 108.259 211.836C70.6992 146.476 78.6392 94.7759 86.7192 69.8759ZM96.1592 285.876C40.3592 252.536 22.1592 211.236 16.3592 189.576C16.0641 188.531 15.9846 187.438 16.1256 186.362C16.2666 185.285 16.6251 184.249 17.1792 183.316C17.6459 182.472 18.2777 181.731 19.0371 181.136C19.7965 180.542 20.6679 180.106 21.5992 179.856C39.0847 175.468 57.2948 174.787 75.0592 177.856C80.1718 192.429 86.6401 206.491 94.3792 219.856C120.939 266.056 159.699 299.196 190.919 318.076C157.36 314.3 125.025 303.265 96.1592 285.736V285.876ZM232.159 318.556C219.124 309.481 207.596 298.412 197.999 285.756C172.799 253.036 160.059 212.876 160.059 166.256C160.059 77.7559 207.039 32.7559 227.239 17.5359C228.628 16.4878 230.32 15.9209 232.059 15.9209C233.799 15.9209 235.491 16.4878 236.879 17.5359C257.079 32.7559 304.059 77.7559 304.059 166.256C304.059 212.876 291.319 253.036 266.219 285.616C256.622 298.272 245.095 309.341 232.059 318.416L232.159 318.556ZM447.859 189.576C442.019 211.236 423.859 252.536 368.059 285.876C339.19 303.391 306.855 314.413 273.299 318.176C304.519 299.296 343.299 266.176 369.839 219.956C377.578 206.591 384.047 192.529 389.159 177.956C406.923 174.877 425.135 175.558 442.619 179.956C443.551 180.206 444.422 180.642 445.181 181.236C445.941 181.831 446.573 182.572 447.039 183.416C448.06 185.25 448.318 187.412 447.759 189.436L447.859 189.576Z" stroke="white" stroke-width="3"/>
<path d="M367.659 64.0959C369.711 63.6709 371.848 64.0281 373.65 65.0975C375.452 66.1669 376.789 67.8712 377.399 69.8759C385.399 94.8759 393.399 146.576 355.859 211.876C334.959 248.256 305.639 276.276 279.639 294.756C300.059 267.876 320.059 226.356 320.059 166.256C320.271 141.108 316.297 116.1 308.299 92.2559C325.772 78.6138 346.041 68.9983 367.659 64.0959Z" stroke="white" stroke-width="3"/>
<path d="M96.1592 285.876C40.3592 252.536 22.1592 211.236 16.3592 189.576C16.0641 188.531 15.9846 187.438 16.1256 186.362C16.2666 185.285 16.6251 184.249 17.1792 183.316C17.6459 182.472 18.2777 181.731 19.0371 181.136C19.7965 180.542 20.6679 180.106 21.5992 179.856C39.0847 175.468 57.2948 174.787 75.0592 177.856C80.1718 192.429 86.6401 206.491 94.3792 219.856C120.939 266.056 159.699 299.196 190.919 318.076C157.36 314.3 125.025 303.265 96.1592 285.736V285.876Z" stroke="white" stroke-width="3"/>
<path d="M232.159 318.556C219.124 309.481 207.596 298.412 197.999 285.756C172.799 253.036 160.059 212.876 160.059 166.256C160.059 77.7559 207.039 32.7559 227.239 17.5359C228.628 16.4878 230.32 15.9209 232.059 15.9209C233.799 15.9209 235.491 16.4878 236.879 17.5359C257.079 32.7559 304.059 77.7559 304.059 166.256C304.059 212.876 291.319 253.036 266.219 285.616C256.622 298.272 245.095 309.341 232.059 318.416L232.159 318.556Z" stroke="white" stroke-width="3"/>
<path d="M86.7192 69.8759C87.3452 67.8871 88.6901 66.2032 90.4911 65.1528C92.2922 64.1025 94.4201 63.7614 96.4592 64.1959C118.069 69.0684 138.338 78.6495 155.819 92.2559C147.822 116.1 143.847 141.108 144.059 166.256C144.059 226.356 164.059 267.896 184.479 294.716C158.479 276.236 129.159 248.216 108.259 211.836C70.6992 146.476 78.6392 94.7759 86.7192 69.8759Z" stroke="white" stroke-width="3"/>
<path d="M447.859 189.576C442.019 211.236 423.859 252.536 368.059 285.876C339.19 303.391 306.855 314.413 273.299 318.176C304.519 299.296 343.299 266.176 369.839 219.956C377.578 206.591 384.047 192.529 389.159 177.956C406.923 174.877 425.135 175.558 442.619 179.956C443.551 180.206 444.422 180.642 445.181 181.236C445.941 181.831 446.573 182.572 447.039 183.416C448.06 185.25 448.318 187.412 447.759 189.436L447.859 189.576Z" stroke="white" stroke-width="3"/>
</g>
<defs>
<clipPath id="clip0_4_24">
<rect width="464.086" height="335.876" fill="white"/>
</clipPath>
</defs>
</svg>
