
<svg width="1220" height="212" viewBox="0 0 1220 212" fill="none" xmlns="http://www.w3.org/2000/svg">
<path d="M1053.39 177.776C1047.09 188.922 1041.28 199.327 1035.58 209.519C1001.36 203.016 977.574 156.898 991.812 126.494C993.72 122.42 993.595 117.393 994.411 112.808C988.937 113.998 983.169 114.495 978.103 116.645C975.167 117.891 973.362 121.799 970.625 125.005C964.603 119.56 959.649 115.081 953.96 109.937C965.661 98.2198 979.235 97.6908 993.705 101.183C1007.83 104.592 1013.82 115.081 1015.32 128.197C1016.17 135.618 1014.53 143.295 1014.42 150.863C1014.23 163.277 1014.36 175.696 1014.36 188.113C1015.6 188.326 1016.84 188.539 1018.08 188.751C1019.45 187.619 1021.27 186.753 1022.12 185.314C1034.47 164.336 1045.97 142.806 1059.23 122.426C1067.11 110.315 1070.82 98.2394 1068.09 83.3847C1007.52 83.3847 946.453 83.3847 883.81 83.3847C883.81 92.3228 883.81 101.748 883.81 111.174C883.81 136.003 883.83 160.831 883.799 185.659C883.789 193.248 884.884 202.204 893.59 201.834C898.859 201.609 905.978 194.842 908.391 189.321C911.955 181.166 912.07 171.504 913.836 161.447C921.492 165.94 929.255 170.496 936.91 174.989C931.165 195.012 915.955 208.079 896.883 209.786C876.412 211.618 859.968 197.132 859.804 176.513C859.559 145.714 859.741 114.913 859.741 83.3574C823.147 83.3574 786.935 83.3574 749.987 83.3574C749.987 90.0045 749.987 96.962 749.987 103.352C763.169 102.067 776.245 99.624 789.29 99.7807C811.377 100.046 822.548 109.336 823.986 131.104C825.669 156.567 824.38 182.226 824.38 209.325C817.358 205.832 809.823 202.083 800.818 197.603C785.413 208.297 765.79 213.521 744.345 207.756C737.975 206.044 731.604 202.8 726.34 198.8C711.767 187.725 710.698 172.084 722.767 158.255C741.672 136.595 770.749 130.116 803.066 140.363C805.455 127.634 798.455 118.04 784.31 119.102C765.467 120.517 746.843 124.84 728.75 127.811C730.217 114.923 731.97 99.5138 733.822 83.2439C704.39 83.2439 676.986 83.2439 648.476 83.2439C648.476 119.149 648.2 155.047 648.868 190.926C648.941 194.847 653.944 201.116 657.562 201.85C661.237 202.596 668.456 198.819 669.878 195.304C674.106 184.857 676.247 173.564 679.383 161.934C686.326 166.082 694.052 170.697 702.169 175.546C695.177 193.833 683.599 205.978 664.512 209.404C642.304 213.39 624.386 197.896 624.296 174.838C624.177 144.484 624.267 114.129 624.267 83.19C587.323 83.19 551.107 83.19 514.335 83.19C514.335 89.9916 514.335 96.6205 514.335 104.345C521.024 103.111 527.462 101.523 533.994 100.825C541.517 100.021 549.193 99.1741 556.679 99.8039C576.822 101.498 587.234 110.261 588.434 130.379C589.978 156.255 588.81 182.292 588.81 209.528C581.817 205.868 574.237 201.9 565.597 197.378C549.499 208.541 529.786 213.629 508.428 207.597C501.376 205.606 494.351 201.64 488.714 196.908C476.593 186.734 475.969 171.991 485.936 159.624C502.796 138.704 534.267 130.072 562.385 138.677C564.259 139.25 566.082 139.993 567.999 140.683C569.538 127.482 563.011 118.439 549.553 119.122C534.58 119.883 519.731 123.556 504.901 126.346C500.723 127.133 496.8 129.273 492.576 130.861C494.544 114.761 496.436 99.282 498.415 83.0987C483.782 83.0987 471.593 83.0987 457.576 83.0987C463.918 104.607 451.345 119.959 442.037 136.46C428.332 160.759 414.851 185.184 401.375 209.375C367.762 204.133 343.208 157.201 357.363 126.767C359.292 122.619 359.367 117.608 360.3 112.996C354.51 114.306 348.504 115.056 343.025 117.172C340.428 118.175 338.839 121.787 336.101 125.039C330.159 119.543 325.065 114.831 319.491 109.677C333.153 97.23 348.347 96.7444 363.615 102.622C377.896 108.119 381.625 121.205 381.461 135.07C381.311 147.831 379.441 160.568 379.121 173.335C378.994 178.416 380.998 183.55 382.72 192.062C395.129 171.396 405.491 154.145 415.848 136.891C419.342 131.07 422.187 124.721 426.442 119.525C435.369 108.624 435.337 96.3683 433.805 82.6227C289.189 82.6227 144.822 82.6227 0 82.6227C0 77.4964 0 73.3168 0 68.1855C208.004 68.1855 415.636 68.1855 624.345 68.1855C624.345 53.9334 624.345 40.5835 624.345 26.9537C645.333 33.2692 653.067 46.4619 647.384 67.4507C718.662 67.4507 788.522 67.4507 859.418 67.4507C859.418 54.2553 859.418 40.8704 859.418 27.1503C881.263 34.7339 883.381 38.2348 883.998 67.7091C957.337 67.7091 1030.72 67.7091 1104.54 67.7091C1104.54 73.2142 1104.54 77.4006 1104.54 82.4537C1100.67 82.4537 1097.26 82.4537 1092.4 82.4537C1098.87 114.606 1074.19 134.108 1063.62 159.21C1061.01 165.419 1057.16 171.108 1053.39 177.776ZM561.039 176.735C572.002 166.363 571.327 162.43 557.64 156.945C533.978 147.461 510.453 152.754 495.002 171.929C491.618 176.129 487.575 184.239 489.363 187.127C492.06 191.485 499.466 194.662 505.137 195.133C525.431 196.817 543.548 190.032 561.039 176.735ZM752.318 155.726C744.735 161.373 736.492 166.355 729.844 172.946C726.445 176.316 723.066 184.214 724.753 187.127C727.166 191.295 734.07 194.628 739.331 195.075C761.843 196.989 781.695 189.551 798.69 174.811C806.994 167.609 806.163 163.041 795.924 158.204C782.44 151.835 768.489 150.316 752.318 155.726Z" fill="white"/>
<path d="M1142.01 207.044C1136 203.675 1130.35 201.262 1125.88 197.455C1113.39 186.799 1112.52 172.024 1122.98 159.299C1140.2 138.358 1171.11 130.069 1199.42 138.812C1201.21 139.364 1202.97 139.992 1204.87 140.625C1206.06 127.176 1199.44 118.36 1185.98 119.109C1171.02 119.941 1156.2 123.624 1141.39 126.431C1137.24 127.219 1133.33 129.294 1129.26 130.793C1131.28 114.942 1133.22 99.7248 1135.32 83.3221C1125.29 83.3221 1117.1 83.3221 1107.85 83.3221C1107.49 78.278 1107.18 74.0975 1106.81 68.9995C1149.71 68.9995 1192.19 68.9995 1235.27 68.9995C1235.27 73.1742 1235.27 77.3493 1235.27 82.5293C1207.07 82.5293 1179.27 82.5293 1151.01 82.5293C1151.01 90.1465 1151.01 96.781 1151.01 104.179C1160.61 102.596 1169.84 100.332 1179.19 99.6626C1212.33 97.2888 1225.72 109.016 1226.96 142.298C1227.78 164.248 1227.12 186.255 1227.12 210.311C1218.57 205.893 1210.99 201.974 1202.26 197.455C1185.58 209.087 1165.19 213.391 1142.01 207.044ZM1203.9 170.569C1208.29 162.925 1202.04 160.718 1197.26 158.292C1174.68 146.848 1148.45 151.82 1132.28 171.316C1128.66 175.692 1124.65 183.757 1126.4 187.52C1128.36 191.718 1136.57 194.801 1142.26 195.146C1165.72 196.569 1185.92 188.137 1203.9 170.569Z" fill="white"/>
<path d="M101.141 117.671C81.8295 107.29 64.5027 110.483 51.1651 126.315C39.4274 140.248 33.2362 156.321 33.2311 174.648C33.2281 185.83 33.2306 197.012 33.2306 208.309C11.7581 202.337 11.5277 202.06 11.5512 180.352C11.578 155.565 11.6394 130.778 11.7238 105.992C11.7248 105.697 12.2326 105.404 12.9354 104.643C19.928 104.643 27.3591 104.643 35.6578 104.643C35.6578 109.048 35.6578 113.187 35.6578 117.795C76.6336 94.5185 98.2062 94.7751 116.521 118.257C137.383 145.003 132.505 182.726 103.791 212C95.9267 207.329 87.8534 202.535 79.1486 197.366C85.9834 190.126 92.5487 183.816 98.3673 176.881C112.68 159.819 114.029 133.882 101.141 117.671Z" fill="white"/>
<path d="M245.233 116.566C228.891 129.883 221.663 146.102 222.89 166.53C223.723 180.401 223.049 194.364 223.049 208.374C221.601 208.374 220.798 208.548 220.101 208.349C202.683 203.349 196.753 192.608 198.47 174.059C200.558 151.491 198.966 128.581 198.966 105.082C206.877 105.082 214.29 105.082 222.286 105.082C222.689 107.122 223.188 109.649 223.75 112.491C225.078 111.928 226.18 111.574 227.172 111.021C245.971 100.558 265.216 93.0517 285.756 106.096C304.833 118.211 306.067 134.1 289.56 149.316C285.809 152.774 281.415 155.535 276.445 159.272C270.123 152.377 264.267 145.992 258.063 139.225C264.276 135.636 270.853 133.253 275.349 128.778C278.745 125.398 282.361 117.633 280.726 114.883C278.274 110.758 271.011 106.782 266.328 107.328C259.284 108.149 252.702 112.933 245.233 116.566Z" fill="white"/>
<path d="M153.096 199.251C151.848 179.21 151.278 159.766 150.973 140.318C150.767 127.178 150.934 114.033 150.934 100.144C157.9 100.144 164.475 100.144 171.816 100.144C171.816 135.835 171.816 171.958 171.816 209.036C165.704 205.903 159.795 202.874 153.096 199.251Z" fill="white"/>
<path d="M178.809 50.9306C175.291 58.9697 171.986 55.1673 170.311 50.8548C165.312 37.9896 157.097 29.5775 144.314 23.1735C137.613 19.8165 134.83 8.63677 129.974 0.478356C145.381 -2.27626 163.557 7.23082 168.229 19.619C172.014 29.6532 175.199 39.9138 178.809 50.9306Z" fill="white"/>
</svg>
